<mxfile host="65bd71144e">
    <diagram id="NQmmRHBavqhQrWnZn7kx" name="Pagina-1">
        <mxGraphModel dx="1715" dy="655" grid="1" gridSize="10" guides="1" tooltips="1" connect="1" arrows="1" fold="1" page="1" pageScale="1" pageWidth="827" pageHeight="1169" math="0" shadow="0">
            <root>
                <mxCell id="0"/>
                <mxCell id="1" parent="0"/>
                <mxCell id="2" value="" style="rounded=0;whiteSpace=wrap;html=1;" parent="1" vertex="1">
                    <mxGeometry x="270" y="110" width="270" height="540" as="geometry"/>
                </mxCell>
                <mxCell id="3" value="Achille" style="text;html=1;strokeColor=none;fillColor=none;align=center;verticalAlign=middle;whiteSpace=wrap;rounded=0;fontSize=58;" parent="1" vertex="1">
                    <mxGeometry x="280" y="120" width="250" height="60" as="geometry"/>
                </mxCell>
                <mxCell id="4" value="username" style="rounded=1;whiteSpace=wrap;html=1;" parent="1" vertex="1">
                    <mxGeometry x="292" y="330" width="226" height="40" as="geometry"/>
                </mxCell>
                <mxCell id="5" value="password" style="rounded=1;whiteSpace=wrap;html=1;" parent="1" vertex="1">
                    <mxGeometry x="294" y="430" width="226" height="40" as="geometry"/>
                </mxCell>
                <mxCell id="7" value="LOGIN" style="ellipse;whiteSpace=wrap;html=1;" parent="1" vertex="1">
                    <mxGeometry x="324.5" y="500" width="165" height="50" as="geometry"/>
                </mxCell>
                <mxCell id="8" value="F" style="ellipse;whiteSpace=wrap;html=1;aspect=fixed;fillColor=#0050ef;fontColor=#ffffff;strokeColor=#001DBC;" vertex="1" parent="1">
                    <mxGeometry x="350" y="585" width="35" height="35" as="geometry"/>
                </mxCell>
                <mxCell id="9" value="G" style="ellipse;whiteSpace=wrap;html=1;aspect=fixed;fillColor=#d80073;fontColor=#ffffff;strokeColor=#A50040;" vertex="1" parent="1">
                    <mxGeometry x="414" y="585" width="35" height="35" as="geometry"/>
                </mxCell>
            </root>
        </mxGraphModel>
    </diagram>
</mxfile>